<svg xmlns="http://www.w3.org/2000/svg" viewBox="0 0 281 101" class="logo-charite"><g fill="#000"><path d="M237.23 35.3h8.881v-4h-21.502v4h8.741v34.5h3.88zM205.444 69.8V31.3h4.067v38.5zM143.463 54.8l-6.077-15.35-6.076 15.35h12.153m1.542 4H129.72l-4.347 10.85h-4.347l15.893-38.5.794-1.85.795 1.85 15.425 38.5h-4.347l-4.58-10.85zm35.198-6.5l8.741 17.5h-4.674l-8.087-16.85h-5.469V69.8h-4.066V31.3h9.488c5.937 0 11.359 2.85 11.359 10.65.047 6.2-3.552 9.2-7.292 10.35m-9.489-17v13.85h5.002c4.674 0 7.806-2.35 7.806-7.15 0-4.85-3.74-6.65-7.806-6.65h-5.002v-.05zM260.602 69.8h19.351v-4h-15.425V50.65h13.228V46.8h-13.228V35.3h14.958v-4h-18.884zM272.007 17.3l-5.796 8.5 2.524 1.35 7.152-7.85zM85.501 46.95h12.294v4H85.501V69.8h-3.926V31.3h3.926zM103.264 69.8V31.3h3.879v38.5zM65.869 34.3c-3.132-2.5-6.684-3.65-10.61-3.65-11.687 0-19.025 9.35-19.025 20.15 0 10.8 7.338 19.85 19.024 19.85 3.74 0 7.48-1.35 10.611-3.65v-5.15c-2.805 3-6.684 5-10.751 5-8.741 0-14.49-7.65-14.49-16.15 0-8.35 5.609-16.15 14.35-16.15 4.066 0 7.946 1.85 10.891 5V34.3z"></path></g><path fill="#878787" d="M0 50.657C0 22.704 22.847 0 51.755 0 64.345 0 76.001 4.467 85 11.973v7.83C76.747 11.19 65.09 5.663 52.035 5.663c-25.318 0-45.088 19.94-45.088 44.67S26.67 95.006 52.035 95.006c13.056 0 24.712-5.388 32.965-14.138v8.151c-8.999 7.507-20.516 11.974-33.245 11.974C22.847 101.498 0 78.749 0 50.657z"></path><g fill="#878787"><path d="M97.234 87.954c-2.015 0-3.14-1.375-3.14-3.666v-4.905h1.265v4.721c0 1.513.61 2.43 1.875 2.43 1.406 0 2.015-.78 2.015-2.292v-4.905h1.266v4.905c0 2.337-1.266 3.712-3.281 3.712zm10.92-.137l-3.421-5.18c-.141-.32-.47-.779-.61-1.054v6.234h-1.265v-8.25h1.265l3.281 5.041c.14.321.61.917.797 1.238v-6.234h1.265v8.25l-1.312-.045zM111.763 87.817v-8.388h1.218v8.388zM119.261 87.817h-1.406l-2.952-8.25h1.406l1.734 5.362c.14.458.469 1.238.469 1.513 0-.321.328-1.054.468-1.513l1.734-5.362h1.406l-2.859 8.25zM124.089 87.817v-8.388h5.483v1.192h-4.218v2.154h2.484v1.238h-2.484v2.566h4.359v1.238zM135.477 80.62h-2.484v2.75h2.484c.797 0 1.406-.458 1.406-1.374.188-.917-.468-1.375-1.406-1.375zm.938 3.85l1.734 3.347h-1.406l-1.734-3.346h-1.875v3.346h-1.265v-8.25h3.749c1.547 0 2.812.779 2.812 2.429-.14 1.237-.89 2.154-2.015 2.475zm6.561 3.484c-1.265 0-2.343-.458-2.952-1.375l.937-.917c.61.596 1.406.917 2.203.917 1.265 0 1.734-.458 1.734-1.237 0-.596-.469-.917-1.875-1.375-1.875-.459-2.671-.917-2.671-2.43 0-1.375 1.265-2.291 2.812-2.291 1.078 0 2.015.458 2.812 1.054l-.938.917c-.468-.596-1.078-.78-2.015-.78s-1.406.459-1.406 1.055c0 .595.328.916 1.875 1.237 1.734.458 2.671 1.054 2.671 2.43-.047 1.741-.984 2.795-3.187 2.795zM148.319 87.817v-8.388h1.219v8.388zM155.349 80.621v7.196h-1.265v-7.196H151.6v-1.192h6.233v1.192zM164.066 78.97c-.468 0-.796-.32-.796-.778 0-.459.328-.78.796-.78.47 0 .797.321.797.78 0 .32-.328.779-.797.779zm-.609 3.805c-.14-.596-.61-1.513-.61-1.97-.14.32-.468 1.374-.608 1.97l-.61 1.833h2.672l-.844-1.833zm-1.734-3.804c-.469 0-.797-.321-.797-.78 0-.458.328-.778.797-.778.469 0 .797.32.797.779 0 .32-.469.779-.797.779zm3.609 8.846l-.797-1.971h-3.421l-.797 1.97h-1.265l3.14-8.25h1.406l3.14 8.25h-1.406zM171.753 80.621v7.196h-1.266v-7.196h-2.484v-1.192h6.234v1.192zM178.455 87.954c-1.266 0-2.344-.458-2.953-1.375l.937-.916c.61.595 1.406.916 2.203.916 1.266 0 1.734-.458 1.734-1.237 0-.596-.468-.917-1.874-1.375-1.875-.459-2.672-.917-2.672-2.43 0-1.374 1.265-2.291 2.812-2.291 1.078 0 2.015.458 2.812 1.054l-.937.917c-.469-.596-1.078-.78-2.015-.78-.938 0-1.407.459-1.407 1.055 0 .596.329.916 1.875 1.237 1.734.459 2.672 1.054 2.672 2.43-.047 1.741-.985 2.795-3.187 2.795zm11.576-.137V83.37v-1.513c-.14.321-.328.78-.61 1.375l-2.015 4.721-2.015-4.72c-.14-.459-.469-1.055-.61-1.376v5.959h-1.265v-8.25h1.266l1.874 4.446c.141.458.47 1.054.61 1.374.14-.32.328-.916.609-1.374l1.875-4.446h1.406v8.25h-1.125zM193.78 87.817v-8.388h5.437v1.192h-4.218v2.154h2.343v1.238h-2.343v2.566h4.405v1.238zM203.763 80.62h-1.078v5.96h1.078c2.015 0 2.812-1.238 2.812-2.888 0-1.834-.797-3.071-2.812-3.071zm0 7.197h-2.343v-8.25h2.343c2.343 0 4.218 1.237 4.218 4.125 0 2.887-2.015 4.125-4.218 4.125zM209.856 87.817v-8.388h1.265v8.388zM213.277 87.817v-1.238l4.218-4.904c.328-.32.797-.917.937-1.054H213.558v-1.238h6.233v1.238l-4.077 4.904c-.328.32-.797.917-.937 1.054H219.79v1.238h-6.514zM222.041 87.817v-8.388h1.266v8.388zM230.946 87.817l-3.421-5.18c-.141-.32-.47-.779-.61-1.054v6.234h-1.265v-8.25h1.265l3.281 5.041c.14.321.61.917.797 1.238v-6.234h1.265v8.25l-1.312-.045zm10.78-3.988h-2.344v2.75h2.343c1.078 0 1.547-.596 1.547-1.375-.14-.733-.61-1.375-1.547-1.375zm-.141-3.208h-2.344v2.154h2.344c.796 0 1.265-.458 1.265-1.054 0-.596-.328-1.1-1.265-1.1zm0 7.196h-3.422v-8.25h3.422c1.406 0 2.484.779 2.484 2.154 0 .917-.469 1.375-1.078 1.696.609.137 1.406.779 1.406 1.97 0 1.513-.938 2.43-2.812 2.43zM246.553 87.817v-8.388h5.483v1.192h-4.218v2.154h2.484v1.238h-2.484v2.566h4.359v1.238zM257.988 80.62h-2.484v2.75h2.484c.797 0 1.406-.458 1.406-1.374 0-.917-.468-1.375-1.406-1.375zm.938 3.85l1.734 3.347h-1.406l-1.734-3.346h-1.875v3.346h-1.266v-8.25h3.75c1.546 0 2.812.779 2.812 2.429-.14 1.237-.937 2.154-2.015 2.475zM262.956 87.817v-8.388h1.266v7.15h4.218v1.238zM270.455 87.817v-8.388h1.265v8.388z"></path><path d="M279.36 87.817l-3.422-5.18c-.14-.32-.468-.779-.609-1.054v6.234h-1.265v-8.25h1.265l3.28 5.041c.141.321.61.917.798 1.238v-6.234h1.265v8.25l-1.312-.045zm-182.126.137c-2.015 0-3.14-1.375-3.14-3.666v-4.905h1.265v4.721c0 1.513.61 2.43 1.875 2.43 1.406 0 2.015-.78 2.015-2.292v-4.905h1.266v4.905c0 2.337-1.266 3.712-3.281 3.712zm10.92-.137l-3.421-5.18c-.141-.32-.47-.779-.61-1.054v6.234h-1.265v-8.25h1.265l3.281 5.041c.14.321.61.917.797 1.238v-6.234h1.265v8.25l-1.312-.045zM111.763 87.817v-8.388h1.218v8.388zM119.261 87.817h-1.406l-2.952-8.25h1.406l1.734 5.362c.14.458.469 1.238.469 1.513 0-.321.328-1.054.468-1.513l1.734-5.362h1.406l-2.859 8.25zM124.089 87.817v-8.388h5.483v1.192h-4.218v2.154h2.484v1.238h-2.484v2.566h4.359v1.238zM135.477 80.62h-2.484v2.75h2.484c.797 0 1.406-.458 1.406-1.374.188-.917-.468-1.375-1.406-1.375zm.938 3.85l1.734 3.347h-1.406l-1.734-3.346h-1.875v3.346h-1.265v-8.25h3.749c1.547 0 2.812.779 2.812 2.429-.14 1.237-.89 2.154-2.015 2.475zm6.561 3.484c-1.265 0-2.343-.458-2.952-1.375l.937-.917c.61.596 1.406.917 2.203.917 1.265 0 1.734-.458 1.734-1.237 0-.596-.469-.917-1.875-1.375-1.875-.459-2.671-.917-2.671-2.43 0-1.375 1.265-2.291 2.812-2.291 1.078 0 2.015.458 2.812 1.054l-.938.917c-.468-.596-1.078-.78-2.015-.78s-1.406.459-1.406 1.055c0 .595.328.916 1.875 1.237 1.734.458 2.671 1.054 2.671 2.43-.047 1.741-.984 2.795-3.187 2.795zM148.319 87.817v-8.388h1.219v8.388zM155.349 80.621v7.196h-1.265v-7.196H151.6v-1.192h6.233v1.192zM164.066 78.97c-.468 0-.796-.32-.796-.778 0-.459.328-.78.796-.78.47 0 .797.321.797.78 0 .32-.328.779-.797.779zm-.609 3.805c-.14-.596-.61-1.513-.61-1.97-.14.32-.468 1.374-.608 1.97l-.61 1.833h2.672l-.844-1.833zm-1.734-3.804c-.469 0-.797-.321-.797-.78 0-.458.328-.778.797-.778.469 0 .797.32.797.779 0 .32-.469.779-.797.779zm3.609 8.846l-.797-1.971h-3.421l-.797 1.97h-1.265l3.14-8.25h1.406l3.14 8.25h-1.406zM171.753 80.621v7.196h-1.266v-7.196h-2.484v-1.192h6.234v1.192zM178.455 87.954c-1.266 0-2.344-.458-2.953-1.375l.937-.916c.61.595 1.406.916 2.203.916 1.266 0 1.734-.458 1.734-1.237 0-.596-.468-.917-1.874-1.375-1.875-.459-2.672-.917-2.672-2.43 0-1.374 1.265-2.291 2.812-2.291 1.078 0 2.015.458 2.812 1.054l-.937.917c-.469-.596-1.078-.78-2.015-.78-.938 0-1.407.459-1.407 1.055 0 .596.329.916 1.875 1.237 1.734.459 2.672 1.054 2.672 2.43-.047 1.741-.985 2.795-3.187 2.795zm11.576-.137V83.37v-1.513c-.14.321-.328.78-.61 1.375l-2.015 4.721-2.015-4.72c-.14-.459-.469-1.055-.61-1.376v5.959h-1.265v-8.25h1.266l1.874 4.446c.141.458.47 1.054.61 1.374.14-.32.328-.916.609-1.374l1.875-4.446h1.406v8.25h-1.125zM193.78 87.817v-8.388h5.437v1.192h-4.218v2.154h2.343v1.238h-2.343v2.566h4.405v1.238zM203.763 80.62h-1.078v5.96h1.078c2.015 0 2.812-1.238 2.812-2.888 0-1.834-.797-3.071-2.812-3.071zm0 7.197h-2.343v-8.25h2.343c2.343 0 4.218 1.237 4.218 4.125 0 2.887-2.015 4.125-4.218 4.125zM209.856 87.817v-8.388h1.265v8.388zM213.277 87.817v-1.238l4.218-4.904c.328-.32.797-.917.937-1.054H213.558v-1.238h6.233v1.238l-4.077 4.904c-.328.32-.797.917-.937 1.054H219.79v1.238h-6.514zM222.041 87.817v-8.388h1.266v8.388zM230.946 87.817l-3.421-5.18c-.141-.32-.47-.779-.61-1.054v6.234h-1.265v-8.25h1.265l3.281 5.041c.14.321.61.917.797 1.238v-6.234h1.265v8.25l-1.312-.045zm10.78-3.988h-2.344v2.75h2.343c1.078 0 1.547-.596 1.547-1.375-.14-.733-.61-1.375-1.547-1.375zm-.141-3.208h-2.344v2.154h2.344c.796 0 1.265-.458 1.265-1.054 0-.596-.328-1.1-1.265-1.1zm0 7.196h-3.422v-8.25h3.422c1.406 0 2.484.779 2.484 2.154 0 .917-.469 1.375-1.078 1.696.609.137 1.406.779 1.406 1.97 0 1.513-.938 2.43-2.812 2.43zM246.553 87.817v-8.388h5.483v1.192h-4.218v2.154h2.484v1.238h-2.484v2.566h4.359v1.238zM257.988 80.62h-2.484v2.75h2.484c.797 0 1.406-.458 1.406-1.374 0-.917-.468-1.375-1.406-1.375zm.938 3.85l1.734 3.347h-1.406l-1.734-3.346h-1.875v3.346h-1.266v-8.25h3.75c1.546 0 2.812.779 2.812 2.429-.14 1.237-.937 2.154-2.015 2.475zM262.956 87.817v-8.388h1.266v7.15h4.218v1.238zM270.455 87.817v-8.388h1.265v8.388z"></path><path d="M279.36 87.817l-3.422-5.18c-.14-.32-.468-.779-.609-1.054v6.234h-1.265v-8.25h1.265l3.28 5.041c.141.321.61.917.798 1.238v-6.234h1.265v8.25l-1.312-.045z"></path></g></svg>